<mxfile host="app.diagrams.net" modified="2023-06-06T15:26:25.990Z" agent="Mozilla/5.0 (Windows NT 10.0; Win64; x64) AppleWebKit/537.36 (KHTML, like Gecko) Chrome/114.0.0.0 Safari/537.36 Edg/114.0.1823.37" etag="RYpY976yDgKVfgQpMWaX" version="21.3.7" type="device">
  <diagram name="test_url_dispatching" id="6Mze8xlKJbpq0lNsER_z">
    <mxGraphModel dx="794" dy="509" grid="1" gridSize="10" guides="1" tooltips="1" connect="1" arrows="1" fold="1" page="1" pageScale="1" pageWidth="850" pageHeight="1100" math="0" shadow="0">
      <root>
        <mxCell id="0" />
        <mxCell id="1" parent="0" />
        <mxCell id="SNWlgNIHMdT54QccQKs6-9" style="edgeStyle=orthogonalEdgeStyle;rounded=0;orthogonalLoop=1;jettySize=auto;html=1;exitX=0.5;exitY=1;exitDx=0;exitDy=0;entryX=0.5;entryY=0;entryDx=0;entryDy=0;" edge="1" parent="1" source="SNWlgNIHMdT54QccQKs6-1" target="SNWlgNIHMdT54QccQKs6-4">
          <mxGeometry relative="1" as="geometry" />
        </mxCell>
        <mxCell id="SNWlgNIHMdT54QccQKs6-1" value="get query parameter form request by&amp;nbsp;&lt;br&gt;request.GET.get(...)&lt;br&gt;for farm_id" style="rounded=0;whiteSpace=wrap;html=1;" vertex="1" parent="1">
          <mxGeometry x="340" y="120" width="120" height="60" as="geometry" />
        </mxCell>
        <mxCell id="SNWlgNIHMdT54QccQKs6-3" style="edgeStyle=orthogonalEdgeStyle;rounded=0;orthogonalLoop=1;jettySize=auto;html=1;exitX=0.5;exitY=1;exitDx=0;exitDy=0;entryX=0.5;entryY=0;entryDx=0;entryDy=0;" edge="1" parent="1" source="SNWlgNIHMdT54QccQKs6-2" target="SNWlgNIHMdT54QccQKs6-1">
          <mxGeometry relative="1" as="geometry" />
        </mxCell>
        <mxCell id="SNWlgNIHMdT54QccQKs6-2" value="Start" style="rounded=1;whiteSpace=wrap;html=1;" vertex="1" parent="1">
          <mxGeometry x="375" y="60" width="50" height="30" as="geometry" />
        </mxCell>
        <mxCell id="SNWlgNIHMdT54QccQKs6-8" style="edgeStyle=orthogonalEdgeStyle;rounded=0;orthogonalLoop=1;jettySize=auto;html=1;exitX=0.5;exitY=1;exitDx=0;exitDy=0;entryX=0.5;entryY=0;entryDx=0;entryDy=0;" edge="1" parent="1" source="SNWlgNIHMdT54QccQKs6-4" target="SNWlgNIHMdT54QccQKs6-5">
          <mxGeometry relative="1" as="geometry" />
        </mxCell>
        <mxCell id="SNWlgNIHMdT54QccQKs6-4" value="get the minitor data from request body by&amp;nbsp;&lt;br&gt;json.loads(request.body)" style="rounded=0;whiteSpace=wrap;html=1;" vertex="1" parent="1">
          <mxGeometry x="327.5" y="210" width="145" height="60" as="geometry" />
        </mxCell>
        <mxCell id="SNWlgNIHMdT54QccQKs6-7" style="edgeStyle=orthogonalEdgeStyle;rounded=0;orthogonalLoop=1;jettySize=auto;html=1;exitX=0.5;exitY=1;exitDx=0;exitDy=0;entryX=0.5;entryY=0;entryDx=0;entryDy=0;" edge="1" parent="1" source="SNWlgNIHMdT54QccQKs6-5" target="SNWlgNIHMdT54QccQKs6-6">
          <mxGeometry relative="1" as="geometry" />
        </mxCell>
        <mxCell id="SNWlgNIHMdT54QccQKs6-5" value="insert the monitor data into corresponding table" style="rounded=0;whiteSpace=wrap;html=1;" vertex="1" parent="1">
          <mxGeometry x="340" y="310" width="120" height="60" as="geometry" />
        </mxCell>
        <mxCell id="SNWlgNIHMdT54QccQKs6-11" style="edgeStyle=orthogonalEdgeStyle;rounded=0;orthogonalLoop=1;jettySize=auto;html=1;exitX=0.5;exitY=1;exitDx=0;exitDy=0;entryX=0.5;entryY=0;entryDx=0;entryDy=0;" edge="1" parent="1" source="SNWlgNIHMdT54QccQKs6-6" target="SNWlgNIHMdT54QccQKs6-10">
          <mxGeometry relative="1" as="geometry" />
        </mxCell>
        <mxCell id="SNWlgNIHMdT54QccQKs6-6" value="publish the record with the monitor data to corresponding topic" style="rounded=0;whiteSpace=wrap;html=1;" vertex="1" parent="1">
          <mxGeometry x="340" y="410" width="120" height="60" as="geometry" />
        </mxCell>
        <mxCell id="SNWlgNIHMdT54QccQKs6-10" value="End" style="rounded=1;whiteSpace=wrap;html=1;" vertex="1" parent="1">
          <mxGeometry x="375" y="500" width="50" height="30" as="geometry" />
        </mxCell>
      </root>
    </mxGraphModel>
  </diagram>
</mxfile>
